<svg width="503" height="44" viewBox="0 0 503 44" fill="none" xmlns="http://www.w3.org/2000/svg">
<path d="M59.3818 17H49.2818L46.9318 25H54.3818V35H43.9318L41.3818 43.5H28.8818L31.4318 35H20.6818L18.1318 43.5H5.63184L8.18184 35H0.631836V25H11.1818L13.5318 17H5.63184V7H16.5318L18.6318 0H31.1318L29.0318 7H39.7818L41.8818 0H54.3818L52.2818 7H59.3818V17ZM34.4318 25L36.7818 17H26.0318L23.6818 25H34.4318Z" fill="white"/>
<path d="M121.026 0.999999H134.976L123.476 36H104.176L98.426 15.85L92.676 36H73.376L61.876 0.999999H75.826L83.076 25.7L90.676 0.999999H106.176L113.776 25.7L121.026 0.999999Z" fill="white"/>
<path d="M169.997 0.999999H182.997V36H169.997V24H149.497V36H136.497V0.999999H149.497V13H169.997V0.999999Z" fill="white"/>
<path d="M202.283 24.5L184.483 0.999999H199.483L208.783 14L218.083 0.999999H233.083L215.283 24.5V36H202.283V24.5Z" fill="white"/>
<path d="M266.204 0.999999H279.204V36H262.204L247.104 15.35V36H234.104V0.999999H251.104L266.204 21.65V0.999999Z" fill="white"/>
<path d="M302.235 36.5C286.835 36.5 280.235 30.65 280.235 18.45C280.235 6.3 286.835 0.5 302.235 0.5C317.585 0.5 324.235 6.35 324.235 18.45C324.235 30.6 317.585 36.5 302.235 36.5ZM302.235 25.5C309.885 25.5 311.235 22.15 311.235 18.45C311.235 14.8 309.935 11.5 302.235 11.5C294.535 11.5 293.235 14.75 293.235 18.45C293.235 22.2 294.585 25.5 302.235 25.5Z" fill="white"/>
<path d="M367.767 0.999999V12H352.767V36H339.767V12H324.767V0.999999H367.767Z" fill="white"/>
<path d="M386.561 24.5L368.761 0.999999H383.761L393.061 14L402.361 0.999999H417.361L399.561 24.5V36H386.561V24.5Z" fill="white"/>
<path d="M434.853 36.5C419.453 36.5 412.853 30.65 412.853 18.45C412.853 6.3 419.453 0.5 434.853 0.5C450.203 0.5 456.853 6.35 456.853 18.45C456.853 30.6 450.203 36.5 434.853 36.5ZM434.853 25.5C442.503 25.5 443.853 22.15 443.853 18.45C443.853 14.8 442.553 11.5 434.853 11.5C427.153 11.5 425.853 14.75 425.853 18.45C425.853 22.2 427.203 25.5 434.853 25.5Z" fill="white"/>
<path d="M502.372 18.45C502.372 30.6 495.722 36.5 480.372 36.5C464.972 36.5 458.372 30.65 458.372 18.45V0.999999H471.372V18.45C471.372 22.2 472.722 25.5 480.372 25.5C488.022 25.5 489.372 22.15 489.372 18.45V0.999999H502.372V18.45Z" fill="white"/>
</svg>
