<svg xmlns="http://www.w3.org/2000/svg" version="1.1" xmlns:xlink="http://www.w3.org/1999/xlink" xmlns:svgjs="http://svgjs.dev/svgjs" width="65" height="65"><svg width="65" height="65" viewBox="0 0 65 65" fill="none" xmlns="http://www.w3.org/2000/svg">
<g clip-path="url(#clip0_348_4931)">
<rect width="65" height="65" rx="15" fill="#6D55C8"></rect>
<path fill-rule="evenodd" clip-rule="evenodd" d="M7.91998 19.7365C7.63302 18.2602 8.61338 16.8277 10.1097 16.5368L49.846 8.8129C51.3422 8.52204 52.7879 9.48303 53.0748 10.9593L63.2934 63.5292C63.5803 65.0055 62.6 66.438 61.1037 66.7289L21.3674 74.4528C19.8711 74.7437 18.4255 73.7827 18.1385 72.3064L7.91998 19.7365ZM12.9551 21.5318C12.8594 21.0398 13.1862 20.5622 13.685 20.4653L28.1345 17.6566C28.6333 17.5596 29.1151 17.88 29.2108 18.3721L32.6839 36.2395C31.2323 34.2143 29.086 32.8231 26.7101 32.3997C27.4297 31.4164 27.7529 30.1553 27.504 28.8745C27.0256 26.4137 24.6166 24.8123 22.1225 25.2971C19.6284 25.7819 17.9947 28.1692 18.473 30.6299C18.722 31.9107 19.4941 32.9589 20.5296 33.6011C18.4846 34.8841 17.0154 36.9791 16.4286 39.4018L12.9551 21.5318ZM18.5344 45.4137C18.0357 45.5107 17.7089 45.9882 17.8045 46.4803L21.2778 64.3487C21.8647 61.9269 23.3335 59.8329 25.3784 58.5498C24.3432 57.9076 23.5709 56.8595 23.322 55.5786C22.8437 53.1182 24.4776 50.7306 26.9715 50.2458C29.4653 49.7611 31.8747 51.3627 32.3529 53.8232C32.6019 55.1041 32.2785 56.3652 31.5592 57.3484C33.9359 57.7721 36.0822 59.1635 37.5336 61.1893L34.0603 43.3205C33.9646 42.8284 33.4828 42.5081 32.984 42.605L18.5344 45.4137ZM32.8232 17.6699C32.7275 17.1778 33.0543 16.7003 33.5531 16.6033L48.0026 13.7946C48.5014 13.6977 48.9833 14.018 49.0789 14.5101L52.5528 32.3816C51.1012 30.355 48.9542 28.9629 46.5773 28.5393C47.2969 27.556 47.6201 26.2949 47.3711 25.0141C46.8928 22.5533 44.4838 20.9519 41.9897 21.4367C39.4956 21.9215 37.8619 24.3088 38.3402 26.7695C38.5891 28.0504 39.3613 29.0986 40.3968 29.7407C38.3526 31.0232 36.8838 33.117 36.2965 35.5385L32.8232 17.6699Z" fill="white"></path>
</g>
<defs>
<clipPath id="SvgjsClipPath1139">
<rect width="65" height="65" rx="15" fill="white"></rect>
</clipPath>
</defs>
</svg><style>@media (prefers-color-scheme: light) { :root { filter: none; } }
@media (prefers-color-scheme: dark) { :root { filter: none; } }
</style></svg>